<?xml version="1.0" encoding="UTF-8"?>
<svg width="100" height="100" viewBox="0 0 100 100" fill="none" xmlns="http://www.w3.org/2000/svg">
  <rect width="100" height="100" rx="28" fill="url(#paint0_linear)"/>
  <path d="M50 30C38.954 30 30 38.954 30 50C30 61.046 38.954 70 50 70C61.046 70 70 61.046 70 50C70 38.954 61.046 30 50 30ZM50 65C41.716 65 35 58.284 35 50C35 41.716 41.716 35 50 35C58.284 35 65 41.716 65 50C65 58.284 58.284 65 50 65Z" fill="white"/>
  <path d="M50 40C44.477 40 40 44.477 40 50C40 55.523 44.477 60 50 60C55.523 60 60 55.523 60 50C60 44.477 55.523 40 50 40ZM50 55C47.239 55 45 52.761 45 50C45 47.239 47.239 45 50 45C52.761 45 55 47.239 55 50C55 52.761 52.761 55 50 55Z" fill="white"/>
  <defs>
    <linearGradient id="paint0_linear" x1="0" y1="0" x2="100" y2="100" gradientUnits="userSpaceOnUse">
      <stop stop-color="#2D9C93"/>
      <stop offset="1" stop-color="#1A5F5A"/>
    </linearGradient>
  </defs>
</svg> 